<?xml version="1.0" encoding="iso-8859-1"?>
<!-- Uploaded to: SVG Repo, www.svgrepo.com, Generator: SVG Repo Mixer Tools -->
<svg height="800px" width="800px" version="1.1" id="Layer_1" xmlns="http://www.w3.org/2000/svg" xmlns:xlink="http://www.w3.org/1999/xlink" 
	 viewBox="0 0 512 512" xml:space="preserve">
<g>
	<polygon style="fill:#E21B1B;" points="466.528,289.424 404.024,351.928 341.528,289.424 296.056,334.904 358.552,397.4 
		296.056,459.896 341.528,505.376 404.024,442.872 466.528,505.376 512,459.896 449.504,397.4 512,334.904 	"/>
	<polygon style="fill:#E21B1B;" points="170.472,289.424 107.976,351.928 45.472,289.424 0,334.904 62.496,397.4 0,459.896 
		45.472,505.376 107.976,442.872 170.472,505.376 215.944,459.896 153.448,397.4 215.944,334.904 	"/>
	<polygon style="fill:#E21B1B;" points="466.528,6.624 404.024,69.128 341.528,6.624 296.056,52.104 358.552,114.6 296.056,177.096 
		341.528,222.576 404.024,160.072 466.528,222.576 512,177.096 449.504,114.6 512,52.104 	"/>
	<polygon style="fill:#E21B1B;" points="170.472,6.624 107.976,69.128 45.472,6.624 0,52.104 62.496,114.6 0,177.096 
		45.472,222.576 107.976,160.072 170.472,222.576 215.944,177.096 153.448,114.6 215.944,52.104 	"/>
</g>
</svg>