<?xml version="1.0" encoding="iso-8859-1"?>
<!-- Uploaded to: SVG Repo, www.svgrepo.com, Generator: SVG Repo Mixer Tools -->
<svg fill="white" height="800px" width="800px" version="1.1" id="Capa_1" xmlns="http://www.w3.org/2000/svg" xmlns:xlink="http://www.w3.org/1999/xlink"
	 viewBox="0 0 488.6 488.6" xml:space="preserve">
<g>
	<path d="M483.8,342.4c0,9.8-7.9,17.7-17.7,17.7h-443c-9.8,0-17.7-7.9-17.7-17.7c0-9.8,7.9-17.7,17.7-17.7H466
		C475.9,324.7,483.8,332.6,483.8,342.4z M466.1,389h-443c-9.8,0-17.7,7.9-17.7,17.7c0,9.8,7.9,17.7,17.7,17.7H466
		c9.8,0,17.7-7.9,17.7-17.7C483.8,396.9,475.9,389,466.1,389z M466.1,453.2h-443c-9.8,0-17.7,7.9-17.7,17.7
		c0,9.8,7.9,17.7,17.7,17.7H466c9.8,0,17.7-7.9,17.7-17.7C483.8,461.2,475.9,453.2,466.1,453.2z M376.6,123
		c-13.9,0-25.2,11.3-25.2,25.2s11.3,25.2,25.2,25.2s25.2-11.3,25.2-25.2S390.5,123,376.6,123z M112,123c-13.9,0-25.2,11.3-25.2,25.2
		s11.3,25.2,25.2,25.2s25.2-11.3,25.2-25.2S125.9,123,112,123z M483.8,41.5v213.6c0,22.9-18.6,41.5-41.5,41.5h-396
		c-22.9,0-41.5-18.6-41.5-41.5V41.5C4.8,18.6,23.4,0,46.3,0h396C465.2-0.1,483.8,18.6,483.8,41.5z M448.4,86.3
		c-3.3,0.8-6.8,1.3-10.4,1.3c-23.2,0-42-18.8-42-42c0-3.5,0.5-7,1.3-10.2H88.9c0.5,2.5,0.7,5.1,0.7,7.7c0,23.2-18.8,42-42,42
		c-2.5,0-5-0.2-7.4-0.7V212c2.4-0.4,4.9-0.7,7.4-0.7c23.2,0,42,18.8,42,42c0,2.6-0.3,5.2-0.7,7.7h307.4c-0.2-1.7-0.3-3.4-0.3-5.2
		c0-23.2,18.8-42,42-42c3.6,0,7.1,0.5,10.4,1.3V86.3z M335.5,148.2c0,50.1-40.8,90.9-90.9,90.9s-90.9-40.8-90.9-90.9
		s40.8-90.9,90.9-90.9S335.5,98.1,335.5,148.2z M285.4,171.5l-23.2-23.2l23.2-23.2l-17.5-17.5l-23.2,23.2l-23.2-23.2L204,125.1
		l23.2,23.2L204,171.5l17.5,17.5l23.2-23.2l23.2,23.2L285.4,171.5z"/>
</g>
</svg>
